# xmcd
#
# Track frame offsets:
#	150
#	20316
#	25189
#	45346
#	67168
#	81785
#	94226
#	114249
#	145209
#	164107
#
# Disc length: 2523 seconds
#
# Revision: 0
# Processed by: cddbd v1.5.2PL0 Copyright (c) Steve Scherf et al.
# Submitted via: dBpowerAMP V4.0
#
DISCID=7f09d90a
DTITLE=Daddy Bone - Daddy Bone
DYEAR=2007
DGENRE=Blues
TTITLE0=Pollyanna Mojo
TTITLE1=All Of My Friends Were Dead
TTITLE2=Ain't No Barbecue In Heaven
TTITLE3=That's The Way
TTITLE4=It's Okay To Be Gay
TTITLE5=May This Be Love
TTITLE6=Ode To Wendy O.
TTITLE7=Naked Dream
TTITLE8=Mailbox Money
TTITLE9=Zombie Mind
EXTD=
EXTT0=
EXTT1=
EXTT2=
EXTT3=
EXTT4=
EXTT5=
EXTT6=
EXTT7=
EXTT8=
EXTT9=
PLAYORDER=
